<?xml version="1.0" encoding="utf-8"?>
<!-- Generator: Adobe Illustrator 26.0.3, SVG Export Plug-In . SVG Version: 6.00 Build 0)  -->
<svg version="1.0" id="katman_1" xmlns="http://www.w3.org/2000/svg" xmlns:xlink="http://www.w3.org/1999/xlink" x="0px" y="0px"
	 viewBox="0 0 600 450" style="enable-background:new 0 0 600 450;" xml:space="preserve">
<style type="text/css">
	.st0{fill:#1E1F1C;}
</style>
<g>
	<path class="st0" d="M459.7,171.9c-7.5-22.1-20.7-44.4-39.3-63.3c-18.7-19-43.2-34.5-71-43c-27.8-8.4-58.8-9.7-88.5-2.6
		c-14.8,3.6-29.3,9.1-42.7,16.8c-13.5,7.5-25.8,17-36.9,27.9l-4,4.2l-2,2.1l-1.9,2.2l-3.7,4.4l-3.5,4.6c-1.2,1.5-2.3,3-3.4,4.7
		s-2.2,3.2-3.3,4.8c-2,3.3-4.2,6.5-6,9.9c-7.6,13.4-13.1,27.9-16.7,42.6c-7.1,29.6-5.7,60.5,2.6,88.1c8.4,27.8,23.8,52.1,42.7,70.6
		c18.9,18.6,41,31.6,62.9,39c11,3.7,21.7,6.3,32.2,7.7c10.4,1.4,20.4,1.8,29.8,1.3c9.3-0.5,18.1-1.5,26-3.2
		c7.9-1.6,15.1-3.7,21.5-5.8c12.7-4.4,22.2-9.3,28.4-13c3.2-1.8,5.5-3.3,7-4.3c1.5-1.1,2.3-1.5,2.3-1.5c0.5-0.4,0.6-0.9,0.4-1.4
		c-0.4-0.5-0.9-0.6-1.4-0.4l0,0c0,0-0.8,0.5-2.3,1.5c-1.5,0.9-3.9,2.5-7,4.2c-6.2,3.5-15.5,8.3-28,12.6c-6.3,2.1-13.4,4.1-21.2,5.7
		c-7.8,1.5-16.5,2.7-25.7,3c-9.2,0.4-19.1,0-29.4-1.4s-20.9-4-31.6-7.7c-21.5-7.5-43.2-20.2-61.6-38.6
		c-18.4-18.2-33.5-42.1-41.7-69.3c-8.1-27.2-9.3-57.4-2.2-86.4c3.6-14.5,9-28.5,16.5-41.6c1.8-3.3,3.9-6.4,5.8-9.7
		c1.1-1.5,2.1-3,3.3-4.7c1.1-1.5,2.2-3,3.4-4.6l3.5-4.4l3.6-4.2l1.9-2.1l2-2.1l4-4.1c10.7-10.5,22.8-19.8,36-27
		c13.1-7.4,27.2-12.6,41.7-16.1c28.9-6.9,59.1-5.5,86,2.8c27.1,8.3,50.7,23.5,68.7,41.9s30.7,40.2,37.9,61.4
		c3.6,10.6,6.1,21.2,7.4,31.4c1.3,10.2,1.6,20,1.2,29.1c-0.5,9.1-1.6,17.6-3.2,25.4c-1.6,7.7-3.6,14.7-5.8,20.9
		c-4.4,12.4-9.2,21.6-12.7,27.5c-1.6,3-3.3,5.4-4.2,6.9c-1.1,1.5-1.5,2.3-1.5,2.3l0,0c-0.9,1.4-0.5,3.3,0.9,4.2
		c1.4,0.9,3.3,0.5,4.2-0.9c0,0,0.5-0.8,1.5-2.3c0.9-1.5,2.5-3.9,4.3-7.1c3.6-6.4,8.5-15.9,13.1-28.7c2.2-6.4,4.3-13.7,6-21.7
		c1.6-8.1,2.8-16.8,3.2-26.3c0.4-9.5,0-19.6-1.4-30.1C466.1,193.8,463.5,182.8,459.7,171.9 M425.2,333.1L425.2,333.1
		c0,0.1-0.1,0.1-0.1,0.2l0,0c-0.9,1.2-1.9,2.1-3.2,2.9c-1.3,0.7-2.7,1.3-4.1,1.8c-1.5,0.5-3,0.8-4.6,1.1s-3.2,0.6-4.7,0.8l-9.7,1.3
		c-3.3,0.4-6.5,0.9-9.8,1.6l-2.5,0.6l-2.5,0.7c-1.6,0.5-3.3,1.1-4.8,1.8c-1.6,0.7-3.2,1.5-4.6,2.5c-1.5,0.9-2.9,2.1-4.1,3.4
		c-0.6,0.7-1.2,1.4-1.8,2.1c-0.6,0.7-0.9,1.5-1.5,2.2c-0.5,0.8-0.8,1.6-1.2,2.5c-0.4,0.8-0.6,1.6-0.8,2.5c-0.2,0.8-0.4,1.8-0.6,2.6
		s-0.2,1.8-0.2,2.6c-0.2,1.8,0,3.4,0.1,5c0,0.5,0.4,0.9,0.9,1.1c0.6,0.1,1.2-0.4,1.2-0.9l0,0c0.2-1.6,0.2-3.3,0.7-4.8
		c0.2-1.5,0.7-2.9,1.3-4.4c0.4-0.7,0.6-1.4,0.9-2.1c0.4-0.6,0.7-1.3,1.2-1.9c0.5-0.6,0.8-1.2,1.3-1.8c0.5-0.5,0.9-1.1,1.5-1.6
		c0.6-0.5,1.1-0.9,1.8-1.4c0.6-0.5,1.2-0.8,1.9-1.3c1.3-0.8,2.7-1.4,4.1-2c1.4-0.6,2.9-1.1,4.3-1.5c1.5-0.5,3-0.8,4.6-1.2
		c3-0.7,6.3-1.2,9.5-1.8c3.2-0.5,6.4-1.1,9.7-1.6c1.6-0.4,3.3-0.7,4.9-1.2c0.8-0.2,1.6-0.5,2.5-0.7c0.8-0.2,1.6-0.6,2.5-0.9
		c1.6-0.7,3.2-1.5,4.6-2.6c0,0,0,0,0.1,0c0,0.2-0.1,0.4-0.1,0.6l-0.9,5.5c-0.6,3.6-1.3,7.2-2.1,10.9c-0.5,1.8-0.9,3.5-1.4,5.3
		c-0.6,1.8-1.1,3.4-1.8,5.1c-0.4,0.8-0.7,1.6-1.1,2.5c-0.4,0.8-0.8,1.6-1.2,2.3l-0.6,1.2l-0.7,1.2c-0.5,0.7-0.9,1.5-1.4,2.2
		c-0.5,0.7-1.1,1.4-1.6,2c-0.6,0.7-1.2,1.3-1.8,1.9c-1.2,1.2-2.6,2.2-4,3.2s-2.9,1.6-4.6,2.3l-2.5,0.8c-0.8,0.2-1.8,0.4-2.6,0.6
		c-0.8,0.2-1.8,0.2-2.6,0.4c-0.8,0.1-1.8,0.2-2.7,0.1H388l-2.7-0.2l-1.4-0.1l-1.3-0.2l-2.7-0.4c-1.8-0.4-3.6-0.8-5.4-1.2h-0.1
		c-0.5-0.1-1.1,0.2-1.3,0.7c-0.2,0.6,0.1,1.2,0.7,1.4c1.8,0.6,3.6,1.3,5.4,1.9l2.8,0.7l1.4,0.4l1.4,0.2l2.9,0.5l2.9,0.1
		c0.9,0.1,2,0,2.9,0c0.9-0.1,2,0,2.9-0.2c0.9-0.1,2-0.4,2.9-0.6l2.9-0.8c0.9-0.4,1.9-0.8,2.8-1.2c0.9-0.4,1.8-0.9,2.7-1.5
		c1.8-1.1,3.3-2.3,4.8-3.7c0.8-0.7,1.4-1.4,2.1-2.2c0.7-0.7,1.3-1.5,1.9-2.3c0.6-0.8,1.2-1.6,1.6-2.5l0.8-1.3l0.7-1.3
		c0.5-0.8,0.9-1.8,1.3-2.7c0.4-0.9,0.8-1.8,1.1-2.7c1.4-3.6,2.3-7.4,3-11.1c0.4-1.9,0.7-3.7,0.9-5.6c0.2-1.9,0.5-3.7,0.6-5.6
		l0.5-5.6c0.1-0.9,0.1-1.9,0.2-2.7c0.1-0.5,0.1-0.9,0.2-1.3l0.1-0.6c0-0.1,0.1-0.1,0.1-0.2c0-0.1,0.1-0.1,0.1-0.2l0.1-0.2
		c0.2-0.5,0.1-1.2-0.4-1.4C426.3,332.4,425.6,332.5,425.2,333.1 M395,315.6l0.1-40.6h16.1v-5.7h-16.1v-36h18.6v-5.7h-24.9l-0.1,94
		h24.9v-5.7L395,315.6z M264.7,206.2v-27.7h13.8v-14.2h-13.8v-23.6h17v-14.2h-32.2l-0.1,94h32.2v-14.2H264.7z M225.8,126.5
		l-0.1,37.8h-11.8l0.1-37.8h-15.2l-0.1,94h15.2l0.1-41.9h11.8l-0.1,41.9h15.2l0.1-94L225.8,126.5z M192.5,253c0-6-0.1-10.9-0.2-15.5
		c0.8,4.8,1.8,9.7,3,15.3l16.8,68.3h7.2l0.1-94h-5.6l-0.1,64.3c0,5.7,0.2,10.9,0.4,15.4c-0.9-4.7-1.9-9.7-3.2-15.2l-15.6-64.5H187
		l-0.1,94h5.5L192.5,253z M240.8,272.3c2.2-15.5,4.1-29.1,5-38.5c0.9,9.3,2.3,23,4.7,38.5l3.9,27.1h-17.3L240.8,272.3z M241.9,227.1
		l-13.5,93.8h5.6l2.3-16h19l2.2,16h6.3l-13.3-94L241.9,227.1z M290.9,227.2h-27.3v5.7h10.5L274,321h6.4l0.1-88.1H291L290.9,227.2z
		 M303.8,126.6h-15.2l-0.1,94h29.9v-14.2h-14.7L303.8,126.6z M316.5,316h-4c-7.4,0-7.9-2.6-7.9-10.6l0.1-78.2h-6.3l-0.1,79.8
		c0,11.4,2.8,14.8,13.4,14.8h5.4c10.6,0,13.3-3.4,13.3-14.7l0.1-79.8h-6l-0.1,78.2C324.4,313.6,323.8,316.1,316.5,316 M338.7,126.7
		h-15.2l-0.1,94h29.9v-14.2h-14.7L338.7,126.7z M361.7,233c7.5,0,8.1,2.6,8.1,10.6v16.1c0,8.1-0.7,10.6-8.1,10.6h-11.9l0.1-37.4
		L361.7,233z M362.6,227.3h-19l-0.1,94h6.3l0.1-45.1h11.3c7.5,0,8.8,3.3,8.8,11.4v19c0,6,0,11.6,1.1,14.6h6.9
		c-1.2-4.7-1.6-10.5-1.6-16.5v-17.3c0-8.8-1.6-12.7-7.2-14.1c5.6-1.5,7.2-5.4,7.2-14.1v-17.2C376.1,230.7,373.3,227.3,362.6,227.3
		 M372.7,147.1c0-5.3,0.5-6.9,4.8-6.9h2.1c4.4,0,4.8,1.6,4.8,6.9l-0.1,53.1c0,5.3-0.5,6.9-4.8,6.9h-2.1c-4.4,0-4.8-1.6-4.8-6.9
		L372.7,147.1z M357.7,145l-0.1,57.2c0,14.7,3.5,19,17.2,19h7.8c13.5,0,17.2-4.3,17.2-19l0.1-57.2c0-14.7-3.6-19-17.2-19h-7.8
		C361.2,126,357.7,130.3,357.7,145"/>
</g>
</svg>
